<svg xmlns="http://www.w3.org/2000/svg" viewBox="0 0 1200 630" width="1200" height="630">
  <rect width="1200" height="630" fill="#111827" />
  <rect x="800" y="80" width="3" height="3" rx="1" fill="#06b6d415" /><rect x="800" y="130" width="3" height="3" rx="1" fill="#06b6d415" /><rect x="800" y="180" width="3" height="3" rx="1" fill="#06b6d415" /><rect x="800" y="230" width="3" height="3" rx="1" fill="#06b6d415" /><rect x="800" y="280" width="3" height="3" rx="1" fill="#06b6d415" /><rect x="800" y="330" width="3" height="3" rx="1" fill="#06b6d415" /><rect x="800" y="380" width="3" height="3" rx="1" fill="#06b6d415" /><rect x="800" y="430" width="3" height="3" rx="1" fill="#06b6d415" /><rect x="800" y="480" width="3" height="3" rx="1" fill="#06b6d415" /><rect x="850" y="80" width="3" height="3" rx="1" fill="#06b6d415" /><rect x="850" y="130" width="3" height="3" rx="1" fill="#06b6d415" /><rect x="850" y="180" width="3" height="3" rx="1" fill="#06b6d415" /><rect x="850" y="230" width="3" height="3" rx="1" fill="#06b6d415" /><rect x="850" y="280" width="3" height="3" rx="1" fill="#06b6d415" /><rect x="850" y="330" width="3" height="3" rx="1" fill="#06b6d415" /><rect x="850" y="380" width="3" height="3" rx="1" fill="#06b6d415" /><rect x="850" y="430" width="3" height="3" rx="1" fill="#06b6d415" /><rect x="850" y="480" width="3" height="3" rx="1" fill="#06b6d415" /><rect x="900" y="80" width="3" height="3" rx="1" fill="#06b6d415" /><rect x="900" y="130" width="3" height="3" rx="1" fill="#06b6d415" /><rect x="900" y="180" width="3" height="3" rx="1" fill="#06b6d415" /><rect x="900" y="230" width="3" height="3" rx="1" fill="#06b6d415" /><rect x="900" y="280" width="3" height="3" rx="1" fill="#06b6d415" /><rect x="900" y="330" width="3" height="3" rx="1" fill="#06b6d415" /><rect x="900" y="380" width="3" height="3" rx="1" fill="#06b6d415" /><rect x="900" y="430" width="3" height="3" rx="1" fill="#06b6d415" /><rect x="900" y="480" width="3" height="3" rx="1" fill="#06b6d415" /><rect x="950" y="80" width="3" height="3" rx="1" fill="#06b6d415" /><rect x="950" y="130" width="3" height="3" rx="1" fill="#06b6d415" /><rect x="950" y="180" width="3" height="3" rx="1" fill="#06b6d415" /><rect x="950" y="230" width="3" height="3" rx="1" fill="#06b6d415" /><rect x="950" y="280" width="3" height="3" rx="1" fill="#06b6d415" /><rect x="950" y="330" width="3" height="3" rx="1" fill="#06b6d415" /><rect x="950" y="380" width="3" height="3" rx="1" fill="#06b6d415" /><rect x="950" y="430" width="3" height="3" rx="1" fill="#06b6d415" /><rect x="950" y="480" width="3" height="3" rx="1" fill="#06b6d415" /><rect x="1000" y="80" width="3" height="3" rx="1" fill="#06b6d415" /><rect x="1000" y="130" width="3" height="3" rx="1" fill="#06b6d415" /><rect x="1000" y="180" width="3" height="3" rx="1" fill="#06b6d415" /><rect x="1000" y="230" width="3" height="3" rx="1" fill="#06b6d415" /><rect x="1000" y="280" width="3" height="3" rx="1" fill="#06b6d415" /><rect x="1000" y="330" width="3" height="3" rx="1" fill="#06b6d415" /><rect x="1000" y="380" width="3" height="3" rx="1" fill="#06b6d415" /><rect x="1000" y="430" width="3" height="3" rx="1" fill="#06b6d415" /><rect x="1000" y="480" width="3" height="3" rx="1" fill="#06b6d415" /><rect x="1050" y="80" width="3" height="3" rx="1" fill="#06b6d415" /><rect x="1050" y="130" width="3" height="3" rx="1" fill="#06b6d415" /><rect x="1050" y="180" width="3" height="3" rx="1" fill="#06b6d415" /><rect x="1050" y="230" width="3" height="3" rx="1" fill="#06b6d415" /><rect x="1050" y="280" width="3" height="3" rx="1" fill="#06b6d415" /><rect x="1050" y="330" width="3" height="3" rx="1" fill="#06b6d415" /><rect x="1050" y="380" width="3" height="3" rx="1" fill="#06b6d415" /><rect x="1050" y="430" width="3" height="3" rx="1" fill="#06b6d415" /><rect x="1050" y="480" width="3" height="3" rx="1" fill="#06b6d415" /><rect x="1100" y="80" width="3" height="3" rx="1" fill="#06b6d415" /><rect x="1100" y="130" width="3" height="3" rx="1" fill="#06b6d415" /><rect x="1100" y="180" width="3" height="3" rx="1" fill="#06b6d415" /><rect x="1100" y="230" width="3" height="3" rx="1" fill="#06b6d415" /><rect x="1100" y="280" width="3" height="3" rx="1" fill="#06b6d415" /><rect x="1100" y="330" width="3" height="3" rx="1" fill="#06b6d415" /><rect x="1100" y="380" width="3" height="3" rx="1" fill="#06b6d415" /><rect x="1100" y="430" width="3" height="3" rx="1" fill="#06b6d415" /><rect x="1100" y="480" width="3" height="3" rx="1" fill="#06b6d415" /><rect x="1150" y="80" width="3" height="3" rx="1" fill="#06b6d415" /><rect x="1150" y="130" width="3" height="3" rx="1" fill="#06b6d415" /><rect x="1150" y="180" width="3" height="3" rx="1" fill="#06b6d415" /><rect x="1150" y="230" width="3" height="3" rx="1" fill="#06b6d415" /><rect x="1150" y="280" width="3" height="3" rx="1" fill="#06b6d415" /><rect x="1150" y="330" width="3" height="3" rx="1" fill="#06b6d415" /><rect x="1150" y="380" width="3" height="3" rx="1" fill="#06b6d415" /><rect x="1150" y="430" width="3" height="3" rx="1" fill="#06b6d415" /><rect x="1150" y="480" width="3" height="3" rx="1" fill="#06b6d415" />
  <!-- Accent glow -->
  <defs>
    <radialGradient id="glow">
      <stop offset="0%" stop-color="#06b6d4" stop-opacity="0.15" />
      <stop offset="100%" stop-color="#06b6d4" stop-opacity="0" />
    </radialGradient>
  </defs>
  <ellipse cx="300" cy="315" rx="400" ry="300" fill="url(#glow)" />
  <!-- Icon badge -->
  <rect x="80" y="80" width="100" height="100" rx="24" fill="#06b6d4" />
  <text x="130" y="148" text-anchor="middle" font-family="sans-serif" font-weight="bold" font-size="42" fill="white">⇩</text>
  <!-- Title -->
  <text x="80" y="280" font-family="sans-serif" font-weight="bold" font-size="72" fill="white">Reduce Size</text>
  <text x="80" y="370" font-family="sans-serif" font-weight="bold" font-size="72" fill="#06b6d4">Keep Quality</text>
  <!-- Divider -->
  <rect x="80" y="400" width="200" height="4" rx="2" fill="#06b6d4" opacity="0.6" />
  <!-- Subtitle -->
  <text x="80" y="440" font-family="sans-serif" font-size="24" fill="#888888">Free online tool at loveconverts.com</text>
  <!-- Brand -->
  <text x="1120" y="600" text-anchor="end" font-family="sans-serif" font-weight="bold" font-size="18" fill="#555555">LoveConverts</text>
</svg>