<svg xmlns="http://www.w3.org/2000/svg" viewBox="0 0 1200 630" width="1200" height="630">
  <rect width="1200" height="630" fill="#111827" />
  <rect x="800" y="80" width="38" height="38" rx="4" fill="#e8563a15" /><rect x="800" y="160" width="38" height="38" rx="4" fill="#e8563a15" /><rect x="800" y="240" width="38" height="38" rx="4" fill="#e8563a15" /><rect x="800" y="320" width="38" height="38" rx="4" fill="#e8563a15" /><rect x="800" y="400" width="38" height="38" rx="4" fill="#e8563a15" /><rect x="800" y="480" width="38" height="38" rx="4" fill="#e8563a15" /><rect x="840" y="120" width="38" height="38" rx="4" fill="#e8563a15" /><rect x="840" y="200" width="38" height="38" rx="4" fill="#e8563a15" /><rect x="840" y="280" width="38" height="38" rx="4" fill="#e8563a15" /><rect x="840" y="360" width="38" height="38" rx="4" fill="#e8563a15" /><rect x="840" y="440" width="38" height="38" rx="4" fill="#e8563a15" /><rect x="840" y="520" width="38" height="38" rx="4" fill="#e8563a15" /><rect x="880" y="80" width="38" height="38" rx="4" fill="#e8563a15" /><rect x="880" y="160" width="38" height="38" rx="4" fill="#e8563a15" /><rect x="880" y="240" width="38" height="38" rx="4" fill="#e8563a15" /><rect x="880" y="320" width="38" height="38" rx="4" fill="#e8563a15" /><rect x="880" y="400" width="38" height="38" rx="4" fill="#e8563a15" /><rect x="880" y="480" width="38" height="38" rx="4" fill="#e8563a15" /><rect x="920" y="120" width="38" height="38" rx="4" fill="#e8563a15" /><rect x="920" y="200" width="38" height="38" rx="4" fill="#e8563a15" /><rect x="920" y="280" width="38" height="38" rx="4" fill="#e8563a15" /><rect x="920" y="360" width="38" height="38" rx="4" fill="#e8563a15" /><rect x="920" y="440" width="38" height="38" rx="4" fill="#e8563a15" /><rect x="920" y="520" width="38" height="38" rx="4" fill="#e8563a15" /><rect x="960" y="80" width="38" height="38" rx="4" fill="#e8563a15" /><rect x="960" y="160" width="38" height="38" rx="4" fill="#e8563a15" /><rect x="960" y="240" width="38" height="38" rx="4" fill="#e8563a15" /><rect x="960" y="320" width="38" height="38" rx="4" fill="#e8563a15" /><rect x="960" y="400" width="38" height="38" rx="4" fill="#e8563a15" /><rect x="960" y="480" width="38" height="38" rx="4" fill="#e8563a15" /><rect x="1000" y="120" width="38" height="38" rx="4" fill="#e8563a15" /><rect x="1000" y="200" width="38" height="38" rx="4" fill="#e8563a15" /><rect x="1000" y="280" width="38" height="38" rx="4" fill="#e8563a15" /><rect x="1000" y="360" width="38" height="38" rx="4" fill="#e8563a15" /><rect x="1000" y="440" width="38" height="38" rx="4" fill="#e8563a15" /><rect x="1000" y="520" width="38" height="38" rx="4" fill="#e8563a15" /><rect x="1040" y="80" width="38" height="38" rx="4" fill="#e8563a15" /><rect x="1040" y="160" width="38" height="38" rx="4" fill="#e8563a15" /><rect x="1040" y="240" width="38" height="38" rx="4" fill="#e8563a15" /><rect x="1040" y="320" width="38" height="38" rx="4" fill="#e8563a15" /><rect x="1040" y="400" width="38" height="38" rx="4" fill="#e8563a15" /><rect x="1040" y="480" width="38" height="38" rx="4" fill="#e8563a15" /><rect x="1080" y="120" width="38" height="38" rx="4" fill="#e8563a15" /><rect x="1080" y="200" width="38" height="38" rx="4" fill="#e8563a15" /><rect x="1080" y="280" width="38" height="38" rx="4" fill="#e8563a15" /><rect x="1080" y="360" width="38" height="38" rx="4" fill="#e8563a15" /><rect x="1080" y="440" width="38" height="38" rx="4" fill="#e8563a15" /><rect x="1080" y="520" width="38" height="38" rx="4" fill="#e8563a15" /><rect x="1120" y="80" width="38" height="38" rx="4" fill="#e8563a15" /><rect x="1120" y="160" width="38" height="38" rx="4" fill="#e8563a15" /><rect x="1120" y="240" width="38" height="38" rx="4" fill="#e8563a15" /><rect x="1120" y="320" width="38" height="38" rx="4" fill="#e8563a15" /><rect x="1120" y="400" width="38" height="38" rx="4" fill="#e8563a15" /><rect x="1120" y="480" width="38" height="38" rx="4" fill="#e8563a15" /><rect x="1160" y="120" width="38" height="38" rx="4" fill="#e8563a15" /><rect x="1160" y="200" width="38" height="38" rx="4" fill="#e8563a15" /><rect x="1160" y="280" width="38" height="38" rx="4" fill="#e8563a15" /><rect x="1160" y="360" width="38" height="38" rx="4" fill="#e8563a15" /><rect x="1160" y="440" width="38" height="38" rx="4" fill="#e8563a15" /><rect x="1160" y="520" width="38" height="38" rx="4" fill="#e8563a15" />
  <!-- Accent glow -->
  <defs>
    <radialGradient id="glow">
      <stop offset="0%" stop-color="#e8563a" stop-opacity="0.15" />
      <stop offset="100%" stop-color="#e8563a" stop-opacity="0" />
    </radialGradient>
  </defs>
  <ellipse cx="300" cy="315" rx="400" ry="300" fill="url(#glow)" />
  <!-- Icon badge -->
  <rect x="80" y="80" width="100" height="100" rx="24" fill="#e8563a" />
  <text x="130" y="148" text-anchor="middle" font-family="sans-serif" font-weight="bold" font-size="42" fill="white">✏️</text>
  <!-- Title -->
  <text x="80" y="280" font-family="sans-serif" font-weight="bold" font-size="72" fill="white">Edit Photos</text>
  <text x="80" y="370" font-family="sans-serif" font-weight="bold" font-size="72" fill="#e8563a">No Photoshop</text>
  <!-- Divider -->
  <rect x="80" y="400" width="200" height="4" rx="2" fill="#e8563a" opacity="0.6" />
  <!-- Subtitle -->
  <text x="80" y="440" font-family="sans-serif" font-size="24" fill="#888888">Free online tool at loveconverts.com</text>
  <!-- Brand -->
  <text x="1120" y="600" text-anchor="end" font-family="sans-serif" font-weight="bold" font-size="18" fill="#555555">LoveConverts</text>
</svg>