<svg xmlns="http://www.w3.org/2000/svg" viewBox="0 0 1200 630" width="1200" height="630">
  <defs>
    <linearGradient id="bluebg" x1="0%" y1="0%" x2="100%" y2="100%">
      <stop offset="0%" style="stop-color:#1E3A5F"/>
      <stop offset="100%" style="stop-color:#2563EB"/>
    </linearGradient>
  </defs>
  <rect width="1200" height="630" fill="url(#bluebg)"/>
  <!-- Decorative shapes -->
  <circle cx="1100" cy="80" r="120" fill="#3B82F6" opacity="0.2"/>
  <circle cx="100" cy="550" r="100" fill="#1D4ED8" opacity="0.2"/>
  <!-- PDF icon -->
  <rect x="140" y="160" width="180" height="230" rx="10" fill="#fff" opacity="0.15"/>
  <rect x="150" y="170" width="160" height="210" rx="8" fill="#fff"/>
  <rect x="170" y="200" width="80" height="12" rx="3" fill="#ddd"/>
  <rect x="170" y="225" width="120" height="8" rx="3" fill="#eee"/>
  <rect x="170" y="245" width="100" height="8" rx="3" fill="#eee"/>
  <rect x="170" y="265" width="110" height="8" rx="3" fill="#eee"/>
  <rect x="170" y="300" width="120" height="60" rx="4" fill="#FFE4E4"/>
  <text x="230" y="338" font-family="Arial, sans-serif" font-size="20" font-weight="bold" fill="#FF4747" text-anchor="middle">PDF</text>
  <!-- Transformation arrow -->
  <path d="M370,290 C420,290 430,220 480,220" fill="none" stroke="#FF4747" stroke-width="4"/>
  <path d="M370,290 C420,290 430,360 480,360" fill="none" stroke="#FF4747" stroke-width="4"/>
  <path d="M370,290 L480,290" stroke="#FF4747" stroke-width="4"/>
  <polygon points="478,210 510,220 478,230" fill="#FF4747"/>
  <polygon points="478,280 510,290 478,300" fill="#FF4747"/>
  <polygon points="478,350 510,360 478,370" fill="#FF4747"/>
  <!-- Image grid -->
  <rect x="520" y="180" width="100" height="80" rx="6" fill="#fff"/>
  <rect x="530" y="190" width="80" height="50" rx="3" fill="#93C5FD"/>
  <circle cx="550" cy="210" r="8" fill="#FBBF24"/>
  <polyline points="530,230 560,210 580,225 610,200" fill="none" stroke="#10B981" stroke-width="2"/>
  <rect x="520" y="270" width="100" height="80" rx="6" fill="#fff"/>
  <rect x="530" y="280" width="80" height="50" rx="3" fill="#A5B4FC"/>
  <rect x="520" y="360" width="100" height="80" rx="6" fill="#fff"/>
  <rect x="530" y="370" width="80" height="50" rx="3" fill="#FCA5A5"/>
  <!-- Title -->
  <text x="880" y="250" font-family="Arial, sans-serif" font-size="60" font-weight="bold" fill="#fff" text-anchor="middle">PDF to</text>
  <text x="880" y="330" font-family="Arial, sans-serif" font-size="60" font-weight="bold" fill="#FF4747" text-anchor="middle">Images</text>
  <text x="880" y="390" font-family="Arial, sans-serif" font-size="24" fill="#93C5FD" text-anchor="middle">Convert Any PDF Instantly</text>
  <!-- Branding -->
  <text x="1150" y="600" font-family="Arial, sans-serif" font-size="18" fill="#93C5FD" text-anchor="end" opacity="0.7">LoveConverts</text>
</svg>