<svg xmlns="http://www.w3.org/2000/svg" viewBox="0 0 1200 630" width="1200" height="630">
  <rect width="1200" height="630" fill="#111827" />
  <circle cx="820" cy="100" r="3" fill="#3b82f615" /><circle cx="820" cy="140" r="3" fill="#3b82f630" /><circle cx="820" cy="180" r="3" fill="#3b82f615" /><circle cx="820" cy="220" r="3" fill="#3b82f630" /><circle cx="820" cy="260" r="3" fill="#3b82f615" /><circle cx="820" cy="300" r="3" fill="#3b82f630" /><circle cx="820" cy="340" r="3" fill="#3b82f615" /><circle cx="820" cy="380" r="3" fill="#3b82f630" /><circle cx="820" cy="420" r="3" fill="#3b82f615" /><circle cx="820" cy="460" r="3" fill="#3b82f630" /><circle cx="820" cy="500" r="3" fill="#3b82f615" /><circle cx="860" cy="100" r="3" fill="#3b82f630" /><circle cx="860" cy="140" r="3" fill="#3b82f615" /><circle cx="860" cy="180" r="3" fill="#3b82f630" /><circle cx="860" cy="220" r="3" fill="#3b82f615" /><circle cx="860" cy="260" r="3" fill="#3b82f630" /><circle cx="860" cy="300" r="3" fill="#3b82f615" /><circle cx="860" cy="340" r="3" fill="#3b82f630" /><circle cx="860" cy="380" r="3" fill="#3b82f615" /><circle cx="860" cy="420" r="3" fill="#3b82f630" /><circle cx="860" cy="460" r="3" fill="#3b82f615" /><circle cx="860" cy="500" r="3" fill="#3b82f630" /><circle cx="900" cy="100" r="3" fill="#3b82f615" /><circle cx="900" cy="140" r="3" fill="#3b82f630" /><circle cx="900" cy="180" r="3" fill="#3b82f615" /><circle cx="900" cy="220" r="3" fill="#3b82f630" /><circle cx="900" cy="260" r="3" fill="#3b82f615" /><circle cx="900" cy="300" r="3" fill="#3b82f630" /><circle cx="900" cy="340" r="3" fill="#3b82f615" /><circle cx="900" cy="380" r="3" fill="#3b82f630" /><circle cx="900" cy="420" r="3" fill="#3b82f615" /><circle cx="900" cy="460" r="3" fill="#3b82f630" /><circle cx="900" cy="500" r="3" fill="#3b82f615" /><circle cx="940" cy="100" r="3" fill="#3b82f630" /><circle cx="940" cy="140" r="3" fill="#3b82f615" /><circle cx="940" cy="180" r="3" fill="#3b82f630" /><circle cx="940" cy="220" r="3" fill="#3b82f615" /><circle cx="940" cy="260" r="3" fill="#3b82f630" /><circle cx="940" cy="300" r="3" fill="#3b82f615" /><circle cx="940" cy="340" r="3" fill="#3b82f630" /><circle cx="940" cy="380" r="3" fill="#3b82f615" /><circle cx="940" cy="420" r="3" fill="#3b82f630" /><circle cx="940" cy="460" r="3" fill="#3b82f615" /><circle cx="940" cy="500" r="3" fill="#3b82f630" /><circle cx="980" cy="100" r="3" fill="#3b82f615" /><circle cx="980" cy="140" r="3" fill="#3b82f630" /><circle cx="980" cy="180" r="3" fill="#3b82f615" /><circle cx="980" cy="220" r="3" fill="#3b82f630" /><circle cx="980" cy="260" r="3" fill="#3b82f615" /><circle cx="980" cy="300" r="3" fill="#3b82f630" /><circle cx="980" cy="340" r="3" fill="#3b82f615" /><circle cx="980" cy="380" r="3" fill="#3b82f630" /><circle cx="980" cy="420" r="3" fill="#3b82f615" /><circle cx="980" cy="460" r="3" fill="#3b82f630" /><circle cx="980" cy="500" r="3" fill="#3b82f615" /><circle cx="1020" cy="100" r="3" fill="#3b82f630" /><circle cx="1020" cy="140" r="3" fill="#3b82f615" /><circle cx="1020" cy="180" r="3" fill="#3b82f630" /><circle cx="1020" cy="220" r="3" fill="#3b82f615" /><circle cx="1020" cy="260" r="3" fill="#3b82f630" /><circle cx="1020" cy="300" r="3" fill="#3b82f615" /><circle cx="1020" cy="340" r="3" fill="#3b82f630" /><circle cx="1020" cy="380" r="3" fill="#3b82f615" /><circle cx="1020" cy="420" r="3" fill="#3b82f630" /><circle cx="1020" cy="460" r="3" fill="#3b82f615" /><circle cx="1020" cy="500" r="3" fill="#3b82f630" /><circle cx="1060" cy="100" r="3" fill="#3b82f615" /><circle cx="1060" cy="140" r="3" fill="#3b82f630" /><circle cx="1060" cy="180" r="3" fill="#3b82f615" /><circle cx="1060" cy="220" r="3" fill="#3b82f630" /><circle cx="1060" cy="260" r="3" fill="#3b82f615" /><circle cx="1060" cy="300" r="3" fill="#3b82f630" /><circle cx="1060" cy="340" r="3" fill="#3b82f615" /><circle cx="1060" cy="380" r="3" fill="#3b82f630" /><circle cx="1060" cy="420" r="3" fill="#3b82f615" /><circle cx="1060" cy="460" r="3" fill="#3b82f630" /><circle cx="1060" cy="500" r="3" fill="#3b82f615" /><circle cx="1100" cy="100" r="3" fill="#3b82f630" /><circle cx="1100" cy="140" r="3" fill="#3b82f615" /><circle cx="1100" cy="180" r="3" fill="#3b82f630" /><circle cx="1100" cy="220" r="3" fill="#3b82f615" /><circle cx="1100" cy="260" r="3" fill="#3b82f630" /><circle cx="1100" cy="300" r="3" fill="#3b82f615" /><circle cx="1100" cy="340" r="3" fill="#3b82f630" /><circle cx="1100" cy="380" r="3" fill="#3b82f615" /><circle cx="1100" cy="420" r="3" fill="#3b82f630" /><circle cx="1100" cy="460" r="3" fill="#3b82f615" /><circle cx="1100" cy="500" r="3" fill="#3b82f630" /><circle cx="1140" cy="100" r="3" fill="#3b82f615" /><circle cx="1140" cy="140" r="3" fill="#3b82f630" /><circle cx="1140" cy="180" r="3" fill="#3b82f615" /><circle cx="1140" cy="220" r="3" fill="#3b82f630" /><circle cx="1140" cy="260" r="3" fill="#3b82f615" /><circle cx="1140" cy="300" r="3" fill="#3b82f630" /><circle cx="1140" cy="340" r="3" fill="#3b82f615" /><circle cx="1140" cy="380" r="3" fill="#3b82f630" /><circle cx="1140" cy="420" r="3" fill="#3b82f615" /><circle cx="1140" cy="460" r="3" fill="#3b82f630" /><circle cx="1140" cy="500" r="3" fill="#3b82f615" />
  <!-- Accent glow -->
  <defs>
    <radialGradient id="glow">
      <stop offset="0%" stop-color="#3b82f6" stop-opacity="0.15" />
      <stop offset="100%" stop-color="#3b82f6" stop-opacity="0" />
    </radialGradient>
  </defs>
  <ellipse cx="300" cy="315" rx="400" ry="300" fill="url(#glow)" />
  <!-- Icon badge -->
  <rect x="80" y="80" width="100" height="100" rx="24" fill="#3b82f6" />
  <text x="130" y="148" text-anchor="middle" font-family="sans-serif" font-weight="bold" font-size="42" fill="white">↓</text>
  <!-- Title -->
  <text x="80" y="280" font-family="sans-serif" font-weight="bold" font-size="72" fill="white">Reduce</text>
  <text x="80" y="370" font-family="sans-serif" font-weight="bold" font-size="72" fill="#3b82f6">Screenshot Size</text>
  <!-- Divider -->
  <rect x="80" y="400" width="200" height="4" rx="2" fill="#3b82f6" opacity="0.6" />
  <!-- Subtitle -->
  <text x="80" y="440" font-family="sans-serif" font-size="24" fill="#888888">Free online tool at loveconverts.com</text>
  <!-- Brand -->
  <text x="1120" y="600" text-anchor="end" font-family="sans-serif" font-weight="bold" font-size="18" fill="#555555">LoveConverts</text>
</svg>