<svg width="1200" height="630" viewBox="0 0 1200 630" xmlns="http://www.w3.org/2000/svg">
  <defs>
    <linearGradient id="darkGrad7" x1="0%" y1="0%" x2="100%" y2="100%">
      <stop offset="0%" style="stop-color:#0D0D1A"/>
      <stop offset="50%" style="stop-color:#1A1A3E"/>
      <stop offset="100%" style="stop-color:#0D0D1A"/>
    </linearGradient>
  </defs>
  <!-- Background -->
  <rect width="1200" height="630" fill="url(#darkGrad7)"/>
  <!-- Decorative orbs -->
  <circle cx="300" cy="400" r="250" fill="#4A90D9" opacity="0.04"/>
  <circle cx="900" cy="400" r="250" fill="#FF4747" opacity="0.04"/>
  <!-- Title -->
  <text x="600" y="90" font-family="Arial, sans-serif" font-size="50" font-weight="bold" fill="#FFFFFF" text-anchor="middle">WebP vs AVIF</text>
  <text x="600" y="135" font-family="Arial, sans-serif" font-size="22" fill="#8888AA" text-anchor="middle">Best Image Format for the Web in 2026</text>
  <!-- WebP Card -->
  <rect x="100" y="180" width="440" height="360" rx="20" fill="#12122A" stroke="#4A90D9" stroke-width="2"/>
  <!-- WebP header -->
  <rect x="100" y="180" width="440" height="70" rx="20" fill="#4A90D9" opacity="0.15"/>
  <rect x="100" y="230" width="440" height="20" fill="#12122A"/>
  <text x="320" y="225" font-family="Arial, sans-serif" font-size="32" font-weight="bold" fill="#4A90D9" text-anchor="middle">WebP</text>
  <!-- WebP stats -->
  <text x="160" y="290" font-family="Arial, sans-serif" font-size="15" fill="#6666AA">Compression</text>
  <rect x="310" y="276" width="200" height="18" rx="9" fill="#1E1E3E"/>
  <rect x="310" y="276" width="160" height="18" rx="9" fill="#4A90D9" opacity="0.6"/>
  <text x="390" y="290" font-family="Arial, sans-serif" font-size="12" fill="#FFFFFF" text-anchor="middle">80%</text>
  <text x="160" y="325" font-family="Arial, sans-serif" font-size="15" fill="#6666AA">Quality</text>
  <rect x="310" y="311" width="200" height="18" rx="9" fill="#1E1E3E"/>
  <rect x="310" y="311" width="170" height="18" rx="9" fill="#4A90D9" opacity="0.6"/>
  <text x="395" y="325" font-family="Arial, sans-serif" font-size="12" fill="#FFFFFF" text-anchor="middle">85%</text>
  <text x="160" y="360" font-family="Arial, sans-serif" font-size="15" fill="#6666AA">Browser Support</text>
  <rect x="310" y="346" width="200" height="18" rx="9" fill="#1E1E3E"/>
  <rect x="310" y="346" width="190" height="18" rx="9" fill="#4CAF50" opacity="0.6"/>
  <text x="405" y="360" font-family="Arial, sans-serif" font-size="12" fill="#FFFFFF" text-anchor="middle">96%</text>
  <text x="160" y="395" font-family="Arial, sans-serif" font-size="15" fill="#6666AA">Speed</text>
  <rect x="310" y="381" width="200" height="18" rx="9" fill="#1E1E3E"/>
  <rect x="310" y="381" width="150" height="18" rx="9" fill="#4A90D9" opacity="0.6"/>
  <text x="385" y="395" font-family="Arial, sans-serif" font-size="12" fill="#FFFFFF" text-anchor="middle">75%</text>
  <!-- WebP verdict -->
  <rect x="160" y="425" width="320" height="40" rx="8" fill="#4A90D9" opacity="0.1"/>
  <text x="320" y="451" font-family="Arial, sans-serif" font-size="16" fill="#4A90D9" text-anchor="middle">Widely supported, proven format</text>
  <!-- VS divider -->
  <circle cx="600" cy="360" r="36" fill="#FF4747"/>
  <text x="600" y="370" font-family="Arial, sans-serif" font-size="24" font-weight="bold" fill="#FFFFFF" text-anchor="middle">VS</text>
  <!-- AVIF Card -->
  <rect x="660" y="180" width="440" height="360" rx="20" fill="#12122A" stroke="#FF4747" stroke-width="2"/>
  <!-- AVIF header -->
  <rect x="660" y="180" width="440" height="70" rx="20" fill="#FF4747" opacity="0.15"/>
  <rect x="660" y="230" width="440" height="20" fill="#12122A"/>
  <text x="880" y="225" font-family="Arial, sans-serif" font-size="32" font-weight="bold" fill="#FF4747" text-anchor="middle">AVIF</text>
  <!-- AVIF stats -->
  <text x="720" y="290" font-family="Arial, sans-serif" font-size="15" fill="#6666AA">Compression</text>
  <rect x="870" y="276" width="200" height="18" rx="9" fill="#1E1E3E"/>
  <rect x="870" y="276" width="190" height="18" rx="9" fill="#FF4747" opacity="0.6"/>
  <text x="965" y="290" font-family="Arial, sans-serif" font-size="12" fill="#FFFFFF" text-anchor="middle">95%</text>
  <text x="720" y="325" font-family="Arial, sans-serif" font-size="15" fill="#6666AA">Quality</text>
  <rect x="870" y="311" width="200" height="18" rx="9" fill="#1E1E3E"/>
  <rect x="870" y="311" width="185" height="18" rx="9" fill="#FF4747" opacity="0.6"/>
  <text x="963" y="325" font-family="Arial, sans-serif" font-size="12" fill="#FFFFFF" text-anchor="middle">93%</text>
  <text x="720" y="360" font-family="Arial, sans-serif" font-size="15" fill="#6666AA">Browser Support</text>
  <rect x="870" y="346" width="200" height="18" rx="9" fill="#1E1E3E"/>
  <rect x="870" y="346" width="160" height="18" rx="9" fill="#FFA726" opacity="0.6"/>
  <text x="950" y="360" font-family="Arial, sans-serif" font-size="12" fill="#FFFFFF" text-anchor="middle">84%</text>
  <text x="720" y="395" font-family="Arial, sans-serif" font-size="15" fill="#6666AA">Speed</text>
  <rect x="870" y="381" width="200" height="18" rx="9" fill="#1E1E3E"/>
  <rect x="870" y="381" width="130" height="18" rx="9" fill="#FF4747" opacity="0.6"/>
  <text x="935" y="395" font-family="Arial, sans-serif" font-size="12" fill="#FFFFFF" text-anchor="middle">65%</text>
  <!-- AVIF verdict -->
  <rect x="720" y="425" width="320" height="40" rx="8" fill="#FF4747" opacity="0.1"/>
  <text x="880" y="451" font-family="Arial, sans-serif" font-size="16" fill="#FF4747" text-anchor="middle">Better compression, growing support</text>
  <!-- Bottom line -->
  <rect x="350" y="570" width="500" height="3" rx="1.5" fill="#FF4747" opacity="0.2"/>
  <!-- Branding -->
  <text x="1160" y="600" font-family="Arial, sans-serif" font-size="16" fill="#FF4747" text-anchor="end" opacity="0.8">LoveConverts</text>
</svg>